{
    "asset" : {
        "generator" : "Khronos glTF Blender I/O v3.2.40",
        "version" : "2.0"
    },
    "scene" : 0,
    "scenes" : [
        {
            "name" : "Scene",
            "nodes" : [
                0,
                1
            ]
        }
    ],
    "nodes" : [
        {
            "mesh" : 0,
            "name" : "Plano"
        },
        {
            "mesh" : 1,
            "name" : "Cubo",
            "translation" : [
                0,
                -0.014999999664723873,
                0
            ]
        }
    ],
    "materials" : [
        {
            "doubleSided" : true,
            "name" : "Material.001",
            "pbrMetallicRoughness" : {
                "baseColorFactor" : [
                    0.896269679069519,
                    0,
                    0.12477179616689682,
                    1
                ],
                "metallicFactor" : 0,
                "roughnessFactor" : 0.5
            }
        },
        {
            "doubleSided" : true,
            "name" : "Material.002",
            "pbrMetallicRoughness" : {
                "baseColorFactor" : [
                    1,
                    0.42326703667640686,
                    0.5775803923606873,
                    1
                ],
                "metallicFactor" : 0,
                "roughnessFactor" : 0.5
            }
        }
    ],
    "meshes" : [
        {
            "name" : "Plano",
            "primitives" : [
                {
                    "attributes" : {
                        "POSITION" : 0,
                        "NORMAL" : 1,
                        "TEXCOORD_0" : 2
                    },
                    "indices" : 3,
                    "material" : 0
                }
            ]
        },
        {
            "name" : "Cubo",
            "primitives" : [
                {
                    "attributes" : {
                        "POSITION" : 4,
                        "NORMAL" : 5,
                        "TEXCOORD_0" : 6
                    },
                    "indices" : 7,
                    "material" : 1
                }
            ]
        }
    ],
    "accessors" : [
        {
            "bufferView" : 0,
            "componentType" : 5126,
            "count" : 1944,
            "max" : [
                1,
                0.09999999403953552,
                1
            ],
            "min" : [
                -1,
                0,
                -1
            ],
            "type" : "VEC3"
        },
        {
            "bufferView" : 1,
            "componentType" : 5126,
            "count" : 1944,
            "type" : "VEC3"
        },
        {
            "bufferView" : 2,
            "componentType" : 5126,
            "count" : 1944,
            "type" : "VEC2"
        },
        {
            "bufferView" : 3,
            "componentType" : 5123,
            "count" : 2916,
            "type" : "SCALAR"
        },
        {
            "bufferView" : 4,
            "componentType" : 5126,
            "count" : 2920,
            "max" : [
                1.100000023841858,
                2.0138182640075684,
                1
            ],
            "min" : [
                -1,
                0.013818144798278809,
                -1.100000023841858
            ],
            "type" : "VEC3"
        },
        {
            "bufferView" : 5,
            "componentType" : 5126,
            "count" : 2920,
            "type" : "VEC3"
        },
        {
            "bufferView" : 6,
            "componentType" : 5126,
            "count" : 2920,
            "type" : "VEC2"
        },
        {
            "bufferView" : 7,
            "componentType" : 5123,
            "count" : 4380,
            "type" : "SCALAR"
        }
    ],
    "bufferViews" : [
        {
            "buffer" : 0,
            "byteLength" : 23328,
            "byteOffset" : 0
        },
        {
            "buffer" : 0,
            "byteLength" : 23328,
            "byteOffset" : 23328
        },
        {
            "buffer" : 0,
            "byteLength" : 15552,
            "byteOffset" : 46656
        },
        {
            "buffer" : 0,
            "byteLength" : 5832,
            "byteOffset" : 62208
        },
        {
            "buffer" : 0,
            "byteLength" : 35040,
            "byteOffset" : 68040
        },
        {
            "buffer" : 0,
            "byteLength" : 35040,
            "byteOffset" : 103080
        },
        {
            "buffer" : 0,
            "byteLength" : 23360,
            "byteOffset" : 138120
        },
        {
            "buffer" : 0,
            "byteLength" : 8760,
            "byteOffset" : 161480
        }
    ],
    "buffers" : [
        {
            "byteLength" : 170240,
            "uri" : "prueba.bin"
        }
    ]
}
